<svg width="53" height="47" viewBox="0 0 53 47" fill="none" xmlns="http://www.w3.org/2000/svg">
<path d="M16.1191 21.7492C16.736 20.6166 13.8776 18.3114 9.73485 16.6003C5.59208 14.8893 1.73368 14.4203 1.11686 15.5528C0.500035 16.6854 3.35837 18.9906 7.50114 20.7017C11.6439 22.4127 15.5023 22.8817 16.1191 21.7492Z" fill="#FF9900"/>
<path d="M50.3094 33.4138C51.413 32.6091 49.9216 29.4749 46.9781 26.4134C44.0346 23.352 40.7538 21.5225 39.6502 22.3272C38.5465 23.1318 40.038 26.266 42.9815 29.3275C45.9249 32.389 49.2058 34.2185 50.3094 33.4138Z" fill="#FF9900"/>
<path d="M27.3199 39.8199C36.4901 39.8199 43.924 33.3461 43.924 25.3604C43.924 17.3746 36.4901 10.9009 27.3199 10.9009C18.1497 10.9009 10.7158 17.3746 10.7158 25.3604C10.7158 33.3461 18.1497 39.8199 27.3199 39.8199Z" fill="#FF9900"/>
<path d="M34.3475 36.7085H29.3032V44.5788H34.3475V36.7085Z" fill="#FF9900"/>
<path d="M24.2591 36.7085H19.2148V44.5788H24.2591V36.7085Z" fill="#FF9900"/>
<path d="M30.144 46.0429C32.4656 46.0429 34.3476 45.4283 34.3476 44.6701C34.3476 43.912 32.4656 43.2974 30.144 43.2974C27.8224 43.2974 25.9404 43.912 25.9404 44.6701C25.9404 45.4283 27.8224 46.0429 30.144 46.0429Z" fill="#FF9900"/>
<path d="M20.0554 45.8588C22.3769 45.8588 24.2589 45.2442 24.2589 44.486C24.2589 43.7279 22.3769 43.1133 20.0554 43.1133C17.7338 43.1133 15.8518 43.7279 15.8518 44.486C15.8518 45.2442 17.7338 45.8588 20.0554 45.8588Z" fill="#FF9900"/>
<path d="M22.1059 7.1841C23.5885 1.98445 30.133 -1.07543 36.7235 0.34966C43.314 1.77475 47.4547 7.14521 45.9721 12.3449C44.4895 17.5445 39.5706 17.5613 32.9802 16.1362C26.3897 14.7111 20.6233 12.3838 22.1059 7.1841Z" fill="#E6E6E6"/>
<path d="M26.4968 26.7944C29.5541 26.7944 32.0326 24.6361 32.0326 21.9736C32.0326 19.3112 29.5541 17.1528 26.4968 17.1528C23.4394 17.1528 20.9609 19.3112 20.9609 21.9736C20.9609 24.6361 23.4394 26.7944 26.4968 26.7944Z" fill="white"/>
<path d="M26.1495 25.5454C27.1686 25.5454 27.9947 24.8259 27.9947 23.9385C27.9947 23.051 27.1686 22.3315 26.1495 22.3315C25.1304 22.3315 24.3042 23.051 24.3042 23.9385C24.3042 24.8259 25.1304 25.5454 26.1495 25.5454Z" fill="#4A78BF"/>
<path d="M31.8383 30.5505C32.2033 32.2967 27.3123 35.2859 25.307 35.6038C24.3441 35.7564 23.3509 35.5697 22.546 35.0847C21.7412 34.5996 21.1905 33.856 21.0152 33.0175L21.0139 33.0112C20.6508 31.2647 22.2015 30.6466 24.2071 30.3304C26.2128 30.0143 31.4752 28.8039 31.8383 30.5505Z" fill="white"/>
</svg>
