<svg width="112" height="105" viewBox="0 0 112 105" fill="none" xmlns="http://www.w3.org/2000/svg">
<path d="M69.099 21.144C69.8146 19.2148 67.2038 17.977 65.6179 19.4936L52.8624 31.6915C52.0612 32.4576 52.0188 33.5954 52.7658 34.2795L58.9098 39.9054C59.9856 40.8904 61.9669 40.3712 62.4875 38.9678L69.099 21.144Z" fill="#FAAA47"/>
<path d="M50.5049 54.0418C49.0696 54.0974 48.2797 52.284 49.1025 50.8222L55.5496 39.368C56.1815 38.2454 57.4637 37.94 58.284 38.7168L69.6515 49.4809C70.9395 50.7005 70.0503 53.2847 68.3196 53.3517L50.5049 54.0418Z" fill="#FE8515"/>
<path d="M53.7638 46.6384C52.3079 47.5709 50.3798 46.6147 50.5196 45.0295L51.2589 36.6489C51.4051 34.9913 53.6496 34.2018 54.8866 35.3728L59.8687 40.089C60.7413 40.915 60.5589 42.2862 59.4851 42.974L53.7638 46.6384Z" fill="#FE9615"/>
<path d="M21.8964 53.0985C19.8397 53.0339 19.6776 50.1492 21.6803 49.2521L37.7871 42.0367C38.7987 41.5835 39.8686 41.9732 40.2205 42.923L43.1148 50.7347C43.6216 52.1024 42.3936 53.7418 40.8976 53.6948L21.8964 53.0985Z" fill="#FAAA47"/>
<path d="M59.3767 48.2797C59.9693 46.9712 58.5875 45.5559 56.9234 45.7668L43.8838 47.4197C42.6058 47.5817 41.8395 48.6542 42.2497 49.7068L47.9336 64.2938C48.5776 65.9465 51.3063 66.0973 52.021 64.5195L59.3767 48.2797Z" fill="#FE8515"/>
<path d="M51.2912 48.5067C52.7038 47.5098 52.5451 45.3635 51.0242 44.8953L42.9832 42.4203C41.3928 41.9308 39.8154 43.712 40.4336 45.2992L42.9234 51.6918C43.3594 52.8113 44.6982 53.1595 45.7401 52.4242L51.2912 48.5067Z" fill="#FE9615"/>
<g filter="url(#filter0_d_237_46)">
<path d="M71.6474 72.6202C72.2789 74.539 69.9915 76.0776 68.4523 74.7692L44.3046 54.2426C43.8979 53.8968 43.6462 53.4028 43.6057 52.8704L42.288 35.5366C42.1702 33.9883 43.7849 32.9023 45.1745 33.5951L60.7323 41.3508C61.2101 41.589 61.5729 42.0084 61.7398 42.5155L71.6474 72.6202Z" fill="url(#paint0_linear_237_46)"/>
</g>
<defs>
<filter id="filter0_d_237_46" x="38.282" y="33.3818" width="37.4731" height="49.874" filterUnits="userSpaceOnUse" color-interpolation-filters="sRGB">
<feFlood flood-opacity="0" result="BackgroundImageFix"/>
<feColorMatrix in="SourceAlpha" type="matrix" values="0 0 0 0 0 0 0 0 0 0 0 0 0 0 0 0 0 0 127 0" result="hardAlpha"/>
<feOffset dy="4"/>
<feGaussianBlur stdDeviation="2"/>
<feComposite in2="hardAlpha" operator="out"/>
<feColorMatrix type="matrix" values="0 0 0 0 0 0 0 0 0 0 0 0 0 0 0 0 0 0 0.25 0"/>
<feBlend mode="normal" in2="BackgroundImageFix" result="effect1_dropShadow_237_46"/>
<feBlend mode="normal" in="SourceGraphic" in2="effect1_dropShadow_237_46" result="shape"/>
</filter>
<linearGradient id="paint0_linear_237_46" x1="73.8704" y1="79.3749" x2="33.062" y2="69.1532" gradientUnits="userSpaceOnUse">
<stop stop-color="#F90000"/>
<stop offset="1" stop-color="#FF9900"/>
</linearGradient>
</defs>
</svg>
