<svg width="72" height="72" viewBox="0 0 72 72" fill="none" xmlns="http://www.w3.org/2000/svg">
<path d="M50.9999 49.8601C52.8556 49.8601 54.3599 48.3558 54.3599 46.5001C54.3599 44.6445 52.8556 43.1401 50.9999 43.1401C49.1442 43.1401 47.6399 44.6445 47.6399 46.5001C47.6399 48.3558 49.1442 49.8601 50.9999 49.8601Z" fill="#CCCCCC"/>
<path fill-rule="evenodd" clip-rule="evenodd" d="M51 52.5C48.81 52.5 44.43 53.58 44.28 55.74C45.78 57.87 48.24 59.25 51 59.25C53.76 59.25 56.22 57.87 57.72 55.74C57.57 53.58 53.19 52.5 51 52.5Z" fill="#CCCCCC"/>
<path fill-rule="evenodd" clip-rule="evenodd" d="M54 33.27V18.81L31.5 9L9 18.81V33.54C9 47.16 18.6 59.91 31.5 63C33.15 62.61 34.74 62.04 36.3 61.35C39.54 65.97 44.91 69 51 69C60.93 69 69 60.93 69 51C69 42.09 62.52 34.71 54 33.27ZM33 51C33 52.68 33.24 54.33 33.69 55.86C32.97 56.19 32.25 56.52 31.5 56.76C21.99 53.76 15 44.04 15 33.54V22.74L31.5 15.54L48 22.74V33.27C39.48 34.71 33 42.09 33 51ZM51 63C44.37 63 39 57.63 39 51C39 44.37 44.37 39 51 39C57.63 39 63 44.37 63 51C63 57.63 57.63 63 51 63Z" fill="#CCCCCC"/>
</svg>
