<svg width="50" height="50" viewBox="0 0 50 50" fill="none" xmlns="http://www.w3.org/2000/svg">
<path d="M15.408 23.6186C15.9976 22.3887 13.2654 19.8854 9.30537 18.0273C5.34537 16.1692 1.6572 15.6599 1.06759 16.8898C0.477975 18.1197 3.21021 20.623 7.1702 22.4811C11.1302 24.3392 14.8184 24.8485 15.408 23.6186Z" fill="#7C7C7C"/>
<path d="M48.0898 36.2858C49.1448 35.412 47.7191 32.0085 44.9055 28.6839C42.0919 25.3592 38.9558 23.3725 37.9009 24.2464C36.8459 25.1202 38.2716 28.5237 41.0852 31.8483C43.8988 35.173 47.0349 37.1597 48.0898 36.2858Z" fill="#7C7C7C"/>
<path d="M26.1145 43.2423C34.8801 43.2423 41.9861 36.2122 41.9861 27.5401C41.9861 18.868 34.8801 11.8379 26.1145 11.8379C17.3489 11.8379 10.2429 18.868 10.2429 27.5401C10.2429 36.2122 17.3489 43.2423 26.1145 43.2423Z" fill="#7C7C7C"/>
<path d="M32.832 39.8633H28.0103V48.4101H32.832V39.8633Z" fill="#7C7C7C"/>
<path d="M23.189 39.8633H18.3673V48.4101H23.189V39.8633Z" fill="#7C7C7C"/>
<path d="M28.8143 50C31.0334 50 32.8324 49.3326 32.8324 48.5093C32.8324 47.686 31.0334 47.0186 28.8143 47.0186C26.5951 47.0186 24.7961 47.686 24.7961 48.5093C24.7961 49.3326 26.5951 50 28.8143 50Z" fill="#7C7C7C"/>
<path d="M19.1708 49.8008C21.39 49.8008 23.1889 49.1334 23.1889 48.3101C23.1889 47.4868 21.39 46.8193 19.1708 46.8193C16.9517 46.8193 15.1527 47.4868 15.1527 48.3101C15.1527 49.1334 16.9517 49.8008 19.1708 49.8008Z" fill="#7C7C7C"/>
<path d="M21.1306 7.80151C22.5478 2.15499 28.8036 -1.16786 35.1033 0.379711C41.403 1.92728 45.361 7.75928 43.9438 13.4058C42.5266 19.0523 37.8248 19.0705 31.5251 17.5229C25.2254 15.9754 19.7134 13.448 21.1306 7.80151Z" fill="#E6E6E6"/>
<path d="M25.3277 29.0972C28.2502 29.0972 30.6193 26.7533 30.6193 23.8621C30.6193 20.9708 28.2502 18.627 25.3277 18.627C22.4053 18.627 20.0361 20.9708 20.0361 23.8621C20.0361 26.7533 22.4053 29.0972 25.3277 29.0972Z" fill="white"/>
<path d="M24.996 27.7406C25.9702 27.7406 26.7599 26.9593 26.7599 25.9955C26.7599 25.0318 25.9702 24.2505 24.996 24.2505C24.0219 24.2505 23.2322 25.0318 23.2322 25.9955C23.2322 26.9593 24.0219 27.7406 24.996 27.7406Z" fill="#7C7C7C"/>
<path d="M30.4336 33.1762C30.7825 35.0726 26.1073 38.3186 24.1905 38.6639C23.27 38.8296 22.3207 38.6269 21.5513 38.1001C20.7819 37.5734 20.2556 36.7659 20.088 35.8552L20.0868 35.8485C19.7397 33.9518 21.222 33.2806 23.1391 32.9373C25.0563 32.5939 30.0866 31.2795 30.4336 33.1762Z" fill="white"/>
</svg>
