<svg width="200" height="200" viewBox="0 0 1024 1024" xmlns="http://www.w3.org/2000/svg">
  <style>
    @keyframes gradientShift {
      0% { x1: 0%; x2: 100%; }
      50% { x1: 100%; x2: 0%; }
      100% { x1: 0%; x2: 100%; }
    }
    .github-logo {
      fill: url(#animatedGradient);
    }
  </style>

  <defs>
    <linearGradient id="animatedGradient" x1="0%" y1="0%" x2="100%" y2="0%">
      <stop offset="0%" stop-color="#f5a33f">
        <animate attributeName="offset" values="0;1" dur="2s" repeatCount="indefinite"/>
      </stop>
      <stop offset="100%" stop-color="yellow">
        <animate attributeName="offset" values="1;0" dur="2s" repeatCount="indefinite"/>
      </stop>
    </linearGradient>
  </defs>

  <path class="github-logo"
    d="M512 32C229.25 32 0 261.25 0 544c0 226.75 146.5 419.5 350 487.25 25.5 4.5 35-11.25 35-25.5 0-12.5-.5-53.5-.75-97.25-142.5 31-172.5-60-172.5-60-23-60-56-75-56-75-46-31 3.5-31 3.5-31 51 3.5 77.5 53 77.5 53 45 77 118 55 147 42 4.5-32.5 17.5-55 31.5-67.75-113.75-13-233.5-56.75-233.5-252 0-55.5 19.5-101 51.5-137.25-5.25-13-22.5-65 5.25-135 0 0 42.25-13.5 138.5 52a479.78 479.78 0 01252 0c96.25-65.5 138.5-52 138.5-52 27.75 70 10.5 122 5.25 135 32 36.25 51.5 81.75 51.5 137.25 0 195.5-120 239-234 252 18.5 16 34.5 47.75 34.5 96.25 0 69.5-.5 125-.5 142.25 0 14.5 9.5 30.25 35 25.5 203.5-67.75 350-260.5 350-487.25C1024 261.25 794.75 32 512 32z"/>
</svg>
