<svg width="60" height="60" viewBox="0 0 60 60" fill="none" xmlns="http://www.w3.org/2000/svg">
<path d="M17.5 50H27.5C27.5 52.75 25.25 55 22.5 55C19.75 55 17.5 52.75 17.5 50ZM12.5 47.5H32.5V42.5H12.5V47.5ZM41.25 23.75C41.25 33.3 34.6 38.4 31.825 40H13.175C10.4 38.4 3.75 33.3 3.75 23.75C3.75 13.4 12.15 5 22.5 5C32.85 5 41.25 13.4 41.25 23.75ZM36.25 23.75C36.25 16.175 30.075 10 22.5 10C14.925 10 8.75 16.175 8.75 23.75C8.75 29.925 12.475 33.475 14.625 35H30.375C32.525 33.475 36.25 29.925 36.25 23.75ZM53.425 18.425L50 20L53.425 21.575L55 25L56.575 21.575L60 20L56.575 18.425L55 15L53.425 18.425ZM47.5 15L49.85 9.85L55 7.5L49.85 5.15L47.5 0L45.15 5.15L40 7.5L45.15 9.85L47.5 15Z" fill="#CCCCCC"/>
</svg>
